<?xml version="1.0" standalone="no"?>
<!DOCTYPE svg PUBLIC "-//W3C//DTD SVG 20010904//EN"
 "http://www.w3.org/TR/2001/REC-SVG-20010904/DTD/svg10.dtd">
<svg version="1.0" xmlns="http://www.w3.org/2000/svg"
 width="426.000000pt" height="432.000000pt" viewBox="0 0 426.000000 432.000000"
 preserveAspectRatio="xMidYMid meet">

<g transform="translate(0.000000,432.000000) scale(0.100000,-0.100000)"
fill="#000000" stroke="none">
<path d="M351 3153 c1 -434 4 -776 6 -760 3 15 11 27 19 27 8 0 12 -4 9 -10
-9 -14 8 -12 24 2 11 11 13 10 8 -4 -4 -12 -1 -18 7 -18 10 0 12 -7 8 -22 -5
-22 -5 -22 12 -5 21 21 37 22 30 2 -4 -10 0 -15 11 -15 9 0 13 5 9 11 -4 8 0
9 15 4 16 -5 20 -3 15 9 -4 11 0 16 11 16 16 0 16 -2 1 -25 -23 -35 0 -33 44
5 19 16 29 30 22 30 -7 0 -10 5 -6 11 4 8 9 7 15 -2 4 -7 11 -10 15 -6 4 4 14
-5 21 -20 7 -16 12 -21 12 -13 -3 34 3 65 8 50 3 -8 13 -22 22 -32 16 -16 17
-16 17 2 0 10 -5 16 -10 13 -5 -3 -6 -1 -2 5 10 16 38 2 31 -16 -4 -12 -2 -12
8 -4 8 7 18 8 22 4 5 -4 5 -2 1 5 -4 8 2 15 19 19 14 3 22 11 18 17 -3 6 -1 7
5 3 6 -4 9 -13 5 -21 -4 -11 -1 -13 11 -9 9 3 13 10 10 15 -3 5 2 6 10 3 9 -3
16 -1 16 5 0 6 16 10 35 9 35 -1 51 -18 18 -18 -14 0 -13 -3 5 -16 16 -11 21
-22 16 -36 -5 -17 -3 -18 13 -9 15 7 20 7 20 -3 0 -9 -46 -28 -120 -51 -66
-20 -125 -39 -131 -41 -6 -2 -16 5 -21 17 -9 19 -34 25 -27 7 3 -12 -16 -9
-23 2 -4 6 4 19 17 29 14 12 25 15 29 9 4 -6 9 -6 12 -2 3 5 -1 14 -8 21 -10
9 -18 8 -36 -8 -17 -15 -24 -17 -31 -7 -11 18 -10 28 3 25 6 -1 14 4 16 11 3
7 -4 12 -16 12 -12 0 -25 -8 -28 -17 -4 -10 -11 -21 -17 -25 -6 -5 -2 -8 10
-8 12 0 25 -10 32 -25 15 -32 15 -48 2 -40 -5 3 -7 0 -4 -9 3 -9 12 -12 22 -9
9 4 15 4 12 1 -3 -3 -61 -29 -130 -57 -111 -45 -126 -49 -137 -35 -6 9 -9 22
-6 30 3 8 1 20 -5 27 -6 6 -12 23 -15 37 -2 14 -5 -327 -6 -758 l-1 -784 122
109 c68 59 213 189 322 287 l199 180 -6 808 c-4 444 -4 808 0 808 5 0 19 -16
33 -34 113 -152 274 -345 283 -339 5 3 7 1 3 -5 -3 -6 -2 -13 3 -16 5 -4 13
-1 16 5 4 5 13 8 21 5 8 -3 14 1 14 9 0 8 7 15 15 15 8 0 15 -4 15 -10 0 -5 7
-7 15 -4 8 4 15 1 15 -6 0 -7 8 -10 20 -7 11 3 20 1 20 -5 0 -5 5 -6 12 -2 7
4 8 3 4 -5 -4 -7 2 -15 16 -20 19 -7 15 -9 -29 -16 -29 -4 -57 -3 -64 1 -8 4
-9 3 -5 -4 11 -19 -15 -14 -29 5 -11 15 -12 14 -10 -10 2 -15 25 -55 52 -90
623 -792 715 -907 722 -907 4 0 57 62 116 138 271 342 628 797 705 897 46 61
136 175 199 255 l116 145 3 -836 2 -837 93 -78 c88 -76 478 -415 525 -457 l22
-20 0 1636 0 1637 -319 0 -319 0 -58 -77 c-95 -128 -1004 -1285 -1042 -1328
-20 -22 -39 -41 -42 -43 -10 -4 -104 113 -422 519 -153 195 -378 482 -501 639
l-223 285 -317 3 -317 2 1 -787z m2036 -579 c-3 -3 -12 -4 -19 -1 -8 3 -5 6 6
6 11 1 17 -2 13 -5z m-359 -29 c3 -3 -10 -5 -29 -5 -19 0 -58 -3 -88 -7 -36
-4 -52 -3 -48 4 4 6 18 8 32 5 14 -2 25 0 25 4 0 9 99 8 108 -1z m-191 -21
c-3 -3 -12 -4 -19 -1 -8 3 -5 6 6 6 11 1 17 -2 13 -5z m-164 -21 c-7 -2 -19
-2 -25 0 -7 3 -2 5 12 5 14 0 19 -2 13 -5z m-56 -9 c-3 -3 -12 -4 -19 -1 -8 3
-5 6 6 6 11 1 17 -2 13 -5z m-60 -10 c-3 -3 -12 -4 -19 -1 -8 3 -5 6 6 6 11 1
17 -2 13 -5z m-668 -21 c13 -14 7 -16 -26 -7 -13 4 -23 9 -23 13 0 12 36 7 49
-6z m-129 -33 c0 -5 -10 -10 -22 -9 -22 0 -22 1 -3 9 11 5 21 9 23 9 1 1 2 -3
2 -9z m-80 -165 c0 -8 -4 -15 -10 -15 -5 0 -7 7 -4 15 4 8 8 15 10 15 2 0 4
-7 4 -15z"/>
<path d="M1375 2490 c-3 -5 3 -10 15 -10 12 0 18 5 15 10 -3 6 -10 10 -15 10
-5 0 -12 -4 -15 -10z"/>
<path d="M565 2310 c-3 -5 -1 -10 4 -10 6 0 11 5 11 10 0 6 -2 10 -4 10 -3 0
-8 -4 -11 -10z"/>
<path d="M1079 1084 c-13 -15 -181 -168 -374 -341 -192 -173 -351 -318 -353
-323 -2 -6 139 -10 377 -10 l381 0 0 350 c0 193 -1 350 -3 350 -2 0 -14 -12
-28 -26z"/>
<path d="M3130 741 l0 -331 387 0 c320 0 385 2 373 13 -124 111 -730 630 -747
641 -10 6 -13 -62 -13 -323z"/>
</g>
</svg>
